<svg id="Capa_1" enable-background="new 0 0 512 512" height="512" viewBox="0 0 512 512" width="512" xmlns="http://www.w3.org/2000/svg"><path d="m311.565 254.29h48.724c4.142 0 7.5-3.357 7.5-7.5 0-4.142-3.358-7.5-7.5-7.5h-48.724c-4.142 0-7.5 3.358-7.5 7.5 0 4.143 3.358 7.5 7.5 7.5zm30.649-57.481c.847.308 1.712.454 2.564.454 3.063 0 5.94-1.892 7.048-4.936l30.398-83.517c1.417-3.893-.59-8.196-4.482-9.613-3.895-1.414-8.197.59-9.613 4.482l-30.398 83.517c-1.416 3.892.59 8.196 4.483 9.613zm-254.657 36.014 51.032 29.464c3.968 2.292 8.396 3.473 12.845 3.57.195.015.39.03.589.03s.394-.015.589-.03c4.447-.097 8.877-1.279 12.844-3.57l51.031-29.463c3.982-2.297 6.359-6.414 6.359-11.012v-70.122-.001c0-.001 0-.002 0-.003 0-.301-.023-.595-.057-.887-.288-4.231-2.58-7.972-6.299-10.12l-51.033-29.464c-8.285-4.783-18.579-4.783-26.865 0l-51.035 29.465c-3.719 2.147-6.011 5.888-6.299 10.12-.035.291-.057.586-.057.887v.003.001 70.123c-.001 4.596 2.376 8.712 6.356 11.009zm120.288-12.33-48.322 27.898v-53.714c2.049-.593 4.045-1.422 5.933-2.512l42.39-24.473v52.801zm-61.756-96.287c3.66-2.111 8.206-2.111 11.866 0l47.605 27.484-47.605 27.484c-3.659 2.113-8.206 2.113-11.865 0l-47.606-27.484zm-49.889 43.486 42.389 24.473c1.889 1.091 3.884 1.92 5.934 2.513v53.714l-48.323-27.899zm215.365 64.126h22.354c4.142 0 7.5-3.357 7.5-7.5s-3.358-7.5-7.5-7.5h-22.354c-4.142 0-7.5 3.357-7.5 7.5s3.358 7.5 7.5 7.5zm20.797 29.944h-20.797c-4.142 0-7.5 3.357-7.5 7.5s3.358 7.5 7.5 7.5h20.797c4.142 0 7.5-3.357 7.5-7.5s-3.358-7.5-7.5-7.5zm112.86-234.552h-10.723c-4.142 0-7.5 3.357-7.5 7.5s3.358 7.5 7.5 7.5h10.723c28.55 0 51.778 23.228 51.778 51.777v202.033h-25.544v-194.557c0-18.587-15.122-33.709-33.709-33.709h-363.494c-18.587 0-33.709 15.122-33.709 33.709v194.557h-25.544v-202.033c0-28.55 23.228-51.777 51.778-51.777h332.378c4.142 0 7.5-3.357 7.5-7.5s-3.358-7.5-7.5-7.5h-332.378c-36.822 0-66.778 29.956-66.778 66.777v226.12c0 32.467 23.172 60.123 55.099 65.759.441.078.879.115 1.313.115 3.57 0 6.735-2.56 7.377-6.197.72-4.079-2.003-7.97-6.082-8.69-24.746-4.367-42.707-25.811-42.707-50.987v-9.088h33.025c.007 0 .013.001.019.001.007 0 .013-.001.019-.001h415.872c.007 0 .013.001.019.001.007 0 .013-.001.019-.001h33.027v9.088c0 28.55-23.228 51.777-51.778 51.777h-353.606c-4.142 0-7.5 3.357-7.5 7.5s3.358 7.5 7.5 7.5h89.71l-4.001 43.438h-3.264c-14.125 0-26.777 9.464-30.767 23.016l-1.733 5.889c-1.792 6.086-.639 12.489 3.161 17.569s9.618 7.993 15.962 7.993h190.631c6.344 0 12.163-2.914 15.962-7.994 3.8-5.079 4.952-11.483 3.16-17.567l-1.733-5.891c-3.989-13.551-16.64-23.015-30.766-23.015h-3.264l-4.001-43.438h114.548c36.821 0 66.778-29.956 66.778-66.777v-226.12c.001-36.821-29.956-66.777-66.777-66.777zm-196.722 268.81h-192.956v-194.557c0-10.316 8.393-18.709 18.709-18.709h174.247zm207.956 0h-192.956v-213.266h174.247c10.316 0 18.709 8.393 18.709 18.709zm-260.067 90.865h119.222l4.001 43.438h-127.224zm141.55 58.438c7.519 0 14.253 5.038 16.376 12.25l1.733 5.891c.607 2.061-.229 3.608-.782 4.348-.94 1.258-2.381 1.979-3.951 1.979h-190.63c-2.15 0-3.398-1.239-3.951-1.979-.553-.738-1.389-2.286-.782-4.349l1.733-5.889c2.124-7.213 8.858-12.251 16.377-12.251zm-67.551-103.87c0-7.947-6.442-14.388-14.388-14.388s-14.388 6.442-14.388 14.388 6.442 14.388 14.388 14.388 14.388-6.442 14.388-14.388zm123.736-225.815c-2.929-2.928-7.678-2.928-10.606 0-2.929 2.93-2.929 7.678 0 10.607l21.758 21.758-21.758 21.758c-2.929 2.93-2.929 7.678 0 10.607 1.464 1.464 3.384 2.196 5.303 2.196s3.839-.732 5.303-2.196l27.061-27.062c2.929-2.93 2.929-7.678 0-10.607zm14.266 123.652h-25.937c-4.142 0-7.5 3.358-7.5 7.5 0 4.143 3.358 7.5 7.5 7.5h25.937c4.142 0 7.5-3.357 7.5-7.5 0-4.142-3.358-7.5-7.5-7.5zm-77.255-56.726c1.919 0 3.839-.732 5.303-2.196 2.929-2.93 2.929-7.678 0-10.607l-21.758-21.758 21.758-21.758c2.929-2.93 2.929-7.678 0-10.607-2.929-2.928-7.678-2.928-10.606 0l-27.062 27.062c-2.929 2.93-2.929 7.678 0 10.607l27.062 27.062c1.464 1.463 3.383 2.195 5.303 2.195zm68.729 79.198h-45.338c-4.142 0-7.5 3.357-7.5 7.5s3.358 7.5 7.5 7.5h45.338c4.142 0 7.5-3.357 7.5-7.5s-3.358-7.5-7.5-7.5zm-8.663-37.444c0-4.143-3.358-7.5-7.5-7.5h-27.618c-4.142 0-7.5 3.357-7.5 7.5s3.358 7.5 7.5 7.5h27.618c4.142 0 7.5-3.357 7.5-7.5z"/></svg>