<?xml version="1.0" encoding="utf-8"?>
<!-- Svg Vector Icons : http://www.onlinewebfonts.com/icon -->
<!DOCTYPE svg PUBLIC "-//W3C//DTD SVG 1.1//EN" "http://www.w3.org/Graphics/SVG/1.1/DTD/svg11.dtd">
<svg version="1.1" xmlns="http://www.w3.org/2000/svg" xmlns:xlink="http://www.w3.org/1999/xlink" x="0px" y="0px" viewBox="0 0 1000 1000" enable-background="new 0 0 1000 1000" xml:space="preserve">
<metadata> Svg Vector Icons : http://www.onlinewebfonts.com/icon </metadata>
<g><path d="M539.4,894.1c-10.3,8.9-16,22.1-16,35.6v27h-31.5c0,0-0.2-6.9-0.2-19.4c0-10.3,2-20.5,5.7-30.2c8.7-22.6,10.3-47,10.3-51V743.8h-7.6c-7.8,0-15.8-0.2-23.5-0.4v112.2c0,7.6-5.2,23.5-9.4,38.1c-0.7-0.7-4.6-1.8-5.7-2.5c-26-22.8-67.9-72.9-73.8-153.7c-144.2-16.5-260.9-64.6-325.3-130.9v179.6C64.3,898.9,259.3,990,499.7,990c240.5,0,435.6-91.1,437.5-203.6V607.4C872.7,673.9,756.2,722,611.6,738.3C605.2,824.2,564.3,872.8,539.4,894.1z M500.1,420c241.7,0,437.5-91.8,437.5-205.1C937.6,101.6,741.8,10,500.1,10S62.6,101.8,62.6,215.1C62.6,328.4,258.4,420,500.1,420z M388,698.5c7.5-83.6,59.4-151.7,88.6-184.1v190.7c7.6,0.2,15.7,0.4,23.5,0.4h7.6V496.8c15.1,14.2,98.7,83.1,104.9,201.9C798.5,675.5,936,596.4,937.4,502V322.3c-80,82.5-241.7,136.8-437.2,136.8c-195.5,0-357.1-54.2-437.7-137.1v179.6C64,596,201.6,675.4,388,698.5z"/></g>
</svg>