<svg height="512pt" viewBox="0 0 512 512" width="512pt" xmlns="http://www.w3.org/2000/svg"><path d="m469.332031 0h-375.464843c-23.554688.0273438-42.640626 19.113281-42.667969 42.667969v179.199219h-25.597657c-14.132812.015624-25.585937 11.46875-25.601562 25.597656v238.933594c.015625 14.132812 11.46875 25.585937 25.601562 25.601562h119.464844c14.132813-.015625 25.585938-11.46875 25.601563-25.601562v-128h59.730469v17.066406c-23.550782.03125-42.636719 19.117187-42.664063 42.667968v8.535157c.011719 9.417969 7.644531 17.054687 17.066406 17.066406h153.597657c9.421874-.011719 17.058593-7.648437 17.066406-17.066406v-8.535157c-.027344-23.550781-19.113282-42.636718-42.664063-42.667968v-17.066406h136.53125c23.554688-.027344 42.640625-19.113282 42.667969-42.664063v-273.066406c-.027344-23.554688-19.113281-42.6406252-42.667969-42.667969zm-443.730469 238.933594h119.464844c4.710938.003906 8.53125 3.820312 8.535156 8.53125v8.535156h-136.535156v-8.535156c.003906-4.710938 3.824219-8.527344 8.535156-8.53125zm-8.535156 153.601562v-119.46875h136.535156v170.667969h-136.535156zm153.601563-128v-17.070312c-.015625-14.128906-11.46875-25.582032-25.601563-25.597656h-42.667968v-170.667969h358.402343v221.867187h-290.132812zm-25.601563 230.398438h-119.464844c-4.710937-.003906-8.53125-3.824219-8.535156-8.535156v-25.597657h136.535156v25.597657c-.003906 4.710937-3.824218 8.53125-8.535156 8.535156zm213.332032-76.800782.011718 8.535157h-153.609375v-8.535157c.015625-14.132812 11.46875-25.582031 25.597657-25.597656h102.402343c14.132813.015625 25.582031 11.464844 25.597657 25.597656zm-42.664063-42.667968h-68.269531v-17.066406h68.269531zm179.199219-59.730469c-.015625 14.132813-11.46875 25.582031-25.601563 25.597656h-298.664062v-51.199219h290.132812c9.421875-.011718 17.054688-7.644531 17.066407-17.066406v-221.867187c-.011719-9.421875-7.644532-17.054688-17.066407-17.066407h-358.402343c-9.417969.011719-17.054688 7.644532-17.066407 17.066407v170.667969h-17.066406v-179.199219c.015625-14.132813 11.46875-25.585938 25.601563-25.601563h375.464843c14.132813.015625 25.585938 11.46875 25.601563 25.601563zm0 0"/><path d="m290.132812 307.199219h-17.066406c-4.710937 0-8.53125 3.820312-8.53125 8.535156 0 4.710937 3.820313 8.53125 8.53125 8.53125h17.066406c4.714844 0 8.535157-3.820313 8.535157-8.53125 0-4.714844-3.820313-8.535156-8.535157-8.535156zm0 0"/><path d="m93.867188 477.867188c0 4.710937-3.820313 8.53125-8.535157 8.53125-4.710937 0-8.53125-3.820313-8.53125-8.53125 0-4.714844 3.820313-8.535157 8.53125-8.535157 4.714844 0 8.535157 3.820313 8.535157 8.535157zm0 0"/><path d="m42.667969 307.199219h8.53125c4.714843 0 8.535156-3.820313 8.535156-8.53125 0-4.714844-3.820313-8.535157-8.535156-8.535157h-8.53125c-4.714844 0-8.535157 3.820313-8.535157 8.535157 0 4.710937 3.820313 8.53125 8.535157 8.53125zm0 0"/><path d="m128 290.132812h-42.667969c-4.710937 0-8.53125 3.820313-8.53125 8.535157 0 4.710937 3.820313 8.53125 8.53125 8.53125h42.667969c4.710938 0 8.535156-3.820313 8.535156-8.53125 0-4.714844-3.824218-8.535157-8.535156-8.535157zm0 0"/><path d="m136.535156 68.265625h-8.535156c-4.710938 0-8.535156 3.820313-8.535156 8.535156 0 4.710938 3.824218 8.53125 8.535156 8.53125h8.535156c4.710938 0 8.53125-3.820312 8.53125-8.53125 0-4.714843-3.820312-8.535156-8.53125-8.535156zm0 0"/><path d="m213.332031 76.800781c0-4.714843-3.820312-8.535156-8.53125-8.535156h-34.132812c-4.714844 0-8.535157 3.820313-8.535157 8.535156 0 4.710938 3.820313 8.53125 8.535157 8.53125h34.132812c4.710938 0 8.53125-3.820312 8.53125-8.53125zm0 0"/><path d="m370.285156 171.144531-11.976562-4.957031c.152344-2.707031.15625-5.417969.007812-8.125l11.910156-4.929688c8.699219-3.613281 12.835938-13.589843 9.242188-22.300781l-6.527344-15.765625v-.007812c-3.621094-8.695313-13.59375-12.824219-22.300781-9.234375l-11.914063 4.9375c-1.8125-2.015625-3.730468-3.929688-5.75-5.738281l4.957032-11.972657c1.730468-4.175781 1.730468-8.867187 0-13.042969-1.730469-4.175781-5.046875-7.492187-9.226563-9.21875l-15.824219-6.558593c-8.695312-3.589844-18.652343.53125-22.265624 9.214843l-4.957032 11.976563c-2.710937-.152344-5.425781-.15625-8.136718-.011719l-4.933594-11.914062c-3.609375-8.699219-13.585938-12.832032-22.289063-9.234375l-15.777343 6.535156c-8.695313 3.617187-12.824219 13.589844-9.230469 22.296875l4.933593 11.914062c-2.015624 1.8125-3.929687 3.730469-5.734374 5.75l-11.976563-4.957031c-8.695313-3.574219-18.648437.546875-22.265625 9.230469l-6.542969 15.816406c-1.738281 4.171875-1.746093 8.867188-.019531 13.050782 1.726562 4.179687 5.046875 7.5 9.230469 9.226562l11.972656 4.957031c-.152344 2.707031-.152344 5.421875-.007813 8.125l-11.90625 4.929688c-8.703124 3.613281-12.839843 13.589843-9.242187 22.300781l6.523437 15.773438c3.628907 8.691406 13.59375 12.816406 22.300782 9.234374l11.917968-4.9375c1.8125 2.015626 3.730469 3.929688 5.75 5.738282l-4.960937 11.976562c-1.730469 4.171875-1.726563 8.863282.003906 13.039063s5.050781 7.492187 9.226563 9.21875l15.824218 6.558593c8.695313 3.597657 18.660157-.527343 22.269532-9.21875l4.957031-11.972656c2.707031.152344 5.421875.15625 8.132813.011719l4.933593 11.910156c3.609375 8.703125 13.585938 12.835938 22.292969 9.238281l15.773438-6.53125c8.695312-3.621093 12.824218-13.589843 9.234374-22.296874l-4.933593-11.917969c2.011719-1.8125 3.925781-3.730469 5.730469-5.75l11.976562 4.960937c8.695312 3.589844 18.660156-.535156 22.265625-9.226562l6.542969-15.816406c1.742187-4.175782 1.75-8.871094.019531-13.050782-1.726563-4.179687-5.046875-7.5-9.226563-9.226562zm-13.070312 31.554688-17.839844-7.386719c-3.625-1.511719-7.808594-.347656-10.132812 2.816406-3.316407 4.464844-7.257813 8.425782-11.710938 11.761719-3.101562 2.34375-4.226562 6.484375-2.738281 10.074219l7.347656 17.738281-15.765625 6.535156-7.351562-17.742187c-1.492188-3.585938-5.210938-5.714844-9.054688-5.183594-5.507812.785156-11.097656.773438-16.601562-.039062-3.882813-.605469-7.671876 1.53125-9.160157 5.171874l-7.355469 17.824219-15.816406-6.523437 7.394532-17.835938c1.5-3.625.335937-7.808594-2.828126-10.136718-4.464843-3.316407-8.425781-7.261719-11.761718-11.714844-2.34375-3.09375-6.484375-4.21875-10.074219-2.730469l-17.742187 7.351563-6.523438-15.773438 17.734375-7.34375c3.585937-1.488281 5.714844-5.207031 5.183594-9.054688-.785157-5.507812-.769531-11.097656.039062-16.601562.59375-3.878906-1.539062-7.660156-5.164062-9.160156l-17.828125-7.359375 6.519531-15.816407 17.839844 7.386719c3.625 1.492188 7.800781.332031 10.132812-2.816406 3.316407-4.464844 7.261719-8.425781 11.710938-11.761719 3.101562-2.34375 4.226562-6.484375 2.742187-10.074218l-7.351562-17.742188 15.765625-6.535156 7.351562 17.742187c1.476563 3.597657 5.207031 5.734375 9.058594 5.183594 5.503906-.785156 11.097656-.773437 16.597656.039063 3.886719.636718 7.695313-1.511719 9.160157-5.171876l7.355468-17.824218 15.816406 6.523437-7.390624 17.835938c-1.503907 3.628906-.339844 7.8125 2.824218 10.136719 4.464844 3.320312 8.425782 7.265624 11.761719 11.714843 2.347656 3.089844 6.484375 4.214844 10.074219 2.738281l17.75-7.324218 6.515625 15.746094-17.734375 7.34375c-3.585938 1.488281-5.714844 5.207031-5.183594 9.054687.785156 5.507813.769531 11.097656-.039062 16.601563-.59375 3.878906 1.539062 7.660156 5.164062 9.160156l17.828125 7.351562zm0 0"/><path d="m294.65625 130.601562c-15.042969-6.230468-32.394531-.96875-41.441406 12.570313s-7.269532 31.585937 4.246094 43.101563c11.511718 11.511718 29.558593 13.289062 43.097656 4.242187 13.539062-9.046875 18.804687-26.394531 12.570312-41.441406-3.4375-8.378907-10.09375-15.03125-18.472656-18.472657zm-6.527344 47.296876c-8.707031 3.609374-18.691406-.523438-22.296875-9.230469-3.609375-8.710938.523438-18.691407 9.234375-22.300781 8.707032-3.609376 18.691406.527343 22.296875 9.234374 1.753907 4.179688 1.765625 8.886719.03125 13.074219-1.730469 4.1875-5.066406 7.507813-9.261719 9.222657zm0 0"/><path d="m121.96875 326.765625-70.769531 70.765625v-30.597656c0-4.714844-3.820313-8.535156-8.53125-8.535156-4.714844 0-8.535157 3.820312-8.535157 8.535156v51.199218c.019532 1.023438.222657 2.03125.601563 2.980469.113281.277344.242187.546875.382813.808594.324218.640625.726562 1.238281 1.199218 1.78125.183594.226563.378906.441406.585938.648437.667968.628907 1.433594 1.144532 2.265625 1.523438.074219.035156.128906.097656.207031.128906l.023438.011719c1.039062.429687 2.148437.652344 3.269531.652344h51.199219c4.710937 0 8.53125-3.820313 8.53125-8.535157 0-4.710937-3.820313-8.53125-8.53125-8.53125h-30.601563l70.765625-70.769531c3.234375-3.347656 3.191406-8.667969-.101562-11.960937-3.292969-3.292969-8.613282-3.339844-11.960938-.105469zm0 0"/></svg>